{
  "accessors": [
    {
      "bufferView": 2,
      "componentType": 5126,
      "count": 65534,
      "max": [
        1244.53125,
        1331.25,
        354.8826904296875
      ],
      "min": [
        -1259.375,
        -2043.75,
        -333.7890625
      ],
      "type": "VEC3"
    },
    {
      "bufferView": 2,
      "byteOffset": 786408,
      "componentType": 5126,
      "count": 65534,
      "max": [
        1.0,
        1.0,
        1.0
      ],
      "min": [
        -1.0,
        -1.0,
        -1.0
      ],
      "type": "VEC3"
    },
    {
      "bufferView": 3,
      "componentType": 5126,
      "count": 65534,
      "max": [
        1.0,
        1.0,
        1.0,
        1.0
      ],
      "min": [
        -1.0,
        -1.0,
        -1.0,
        -1.0
      ],
      "type": "VEC4"
    },
    {
      "bufferView": 1,
      "componentType": 5126,
      "count": 65534,
      "max": [
        0.9970703125,
        1.0001182556152344
      ],
      "min": [
        0.000644683837890625,
        0.0009765625
      ],
      "type": "VEC2"
    },
    {
      "bufferView": 1,
      "byteOffset": 524272,
      "componentType": 5126,
      "count": 65534,
      "max": [
        0.9990234375,
        0.998896598815918
      ],
      "min": [
        0.0012454986572265625,
        0.00244140625
      ],
      "type": "VEC2"
    },
    {
      "bufferView": 1,
      "byteOffset": 1048544,
      "componentType": 5126,
      "count": 65534,
      "max": [
        0.9970703125,
        1.0001182556152344
      ],
      "min": [
        0.000644683837890625,
        0.0009765625
      ],
      "type": "VEC2"
    },
    {
      "bufferView": 0,
      "componentType": 5125,
      "count": 138585,
      "type": "SCALAR"
    },
    {
      "bufferView": 2,
      "byteOffset": 1572816,
      "componentType": 5126,
      "count": 23434,
      "max": [
        1194.53125,
        1217.96875,
        417.5780029296875
      ],
      "min": [
        -1257.03125,
        -2050.0,
        -354.4921875
      ],
      "type": "VEC3"
    },
    {
      "bufferView": 2,
      "byteOffset": 1854024,
      "componentType": 5126,
      "count": 23434,
      "max": [
        1.0,
        1.0,
        1.0
      ],
      "min": [
        -1.0,
        -1.0,
        -1.0
      ],
      "type": "VEC3"
    },
    {
      "bufferView": 3,
      "byteOffset": 1048544,
      "componentType": 5126,
      "count": 23434,
      "max": [
        1.0,
        1.0,
        1.0,
        1.0
      ],
      "min": [
        -1.0,
        -1.0,
        -1.0,
        -1.0
      ],
      "type": "VEC4"
    },
    {
      "bufferView": 1,
      "byteOffset": 1572816,
      "componentType": 5126,
      "count": 23434,
      "max": [
        0.99755859375,
        0.9984340667724609
      ],
      "min": [
        0.0007238388061523438,
        0.00244140625
      ],
      "type": "VEC2"
    },
    {
      "bufferView": 1,
      "byteOffset": 1760288,
      "componentType": 5126,
      "count": 23434,
      "max": [
        0.99951171875,
        0.998866081237793
      ],
      "min": [
        0.001186370849609375,
        0.0009765625
      ],
      "type": "VEC2"
    },
    {
      "bufferView": 1,
      "byteOffset": 1947760,
      "componentType": 5126,
      "count": 23434,
      "max": [
        0.99755859375,
        0.9984340667724609
      ],
      "min": [
        0.0007238388061523438,
        0.00244140625
      ],
      "type": "VEC2"
    },
    {
      "bufferView": 0,
      "byteOffset": 554340,
      "componentType": 5125,
      "count": 51006,
      "type": "SCALAR"
    },
    {
      "bufferView": 2,
      "byteOffset": 2135232,
      "componentType": 5126,
      "count": 37371,
      "max": [
        587.890625,
        743.7500610351563,
        -192.0897216796875
      ],
      "min": [
        -587.890625,
        -982.8124389648438,
        -448.0470275878906
      ],
      "type": "VEC3"
    },
    {
      "bufferView": 2,
      "byteOffset": 2583684,
      "componentType": 5126,
      "count": 37371,
      "max": [
        1.0,
        1.0,
        1.0
      ],
      "min": [
        -1.0,
        -1.0,
        -1.0
      ],
      "type": "VEC3"
    },
    {
      "bufferView": 1,
      "byteOffset": 2135232,
      "componentType": 5126,
      "count": 37371,
      "max": [
        0.99609375,
        0.9980449676513672
      ],
      "min": [
        0.0012750625610351563,
        0.00244140625
      ],
      "type": "VEC2"
    },
    {
      "bufferView": 1,
      "byteOffset": 2434200,
      "componentType": 5126,
      "count": 37371,
      "max": [
        0.99609375,
        0.9980449676513672
      ],
      "min": [
        0.0012750625610351563,
        0.00244140625
      ],
      "type": "VEC2"
    },
    {
      "bufferView": 1,
      "byteOffset": 2733168,
      "componentType": 5126,
      "count": 37371,
      "max": [
        0.99609375,
        0.9980449676513672
      ],
      "min": [
        0.0012750625610351563,
        0.00244140625
      ],
      "type": "VEC2"
    },
    {
      "bufferView": 0,
      "byteOffset": 758364,
      "componentType": 5125,
      "count": 85806,
      "type": "SCALAR"
    },
    {
      "bufferView": 2,
      "byteOffset": 3032136,
      "componentType": 5126,
      "count": 65532,
      "max": [
        1210.9375,
        1201.5625,
        283.0078430175781
      ],
      "min": [
        -1257.03125,
        -2065.625,
        -309.7655944824219
      ],
      "type": "VEC3"
    },
    {
      "bufferView": 2,
      "byteOffset": 3818520,
      "componentType": 5126,
      "count": 65532,
      "max": [
        1.0,
        1.0,
        1.0
      ],
      "min": [
        -1.0,
        -1.0,
        -1.0
      ],
      "type": "VEC3"
    },
    {
      "bufferView": 3,
      "byteOffset": 1423488,
      "componentType": 5126,
      "count": 65532,
      "max": [
        1.0,
        1.0,
        1.0,
        1.0
      ],
      "min": [
        -1.0,
        -1.0,
        -1.0,
        -1.0
      ],
      "type": "VEC4"
    },
    {
      "bufferView": 1,
      "byteOffset": 3032136,
      "componentType": 5126,
      "count": 65532,
      "max": [
        0.998046875,
        0.9991292953491211
      ],
      "min": [
        0.0023517608642578125,
        0.00146484375
      ],
      "type": "VEC2"
    },
    {
      "bufferView": 1,
      "byteOffset": 3556392,
      "componentType": 5126,
      "count": 65532,
      "max": [
        0.998046875,
        0.9991292953491211
      ],
      "min": [
        0.0023517608642578125,
        0.00146484375
      ],
      "type": "VEC2"
    },
    {
      "bufferView": 1,
      "byteOffset": 4080648,
      "componentType": 5126,
      "count": 65532,
      "max": [
        0.998046875,
        0.9991292953491211
      ],
      "min": [
        0.0023517608642578125,
        0.00146484375
      ],
      "type": "VEC2"
    },
    {
      "bufferView": 0,
      "byteOffset": 1101588,
      "componentType": 5125,
      "count": 164814,
      "type": "SCALAR"
    },
    {
      "bufferView": 2,
      "byteOffset": 4604904,
      "componentType": 5126,
      "count": 40519,
      "max": [
        1210.9375,
        1207.03125,
        282.61712646484375
      ],
      "min": [
        -1210.9375,
        -2065.625,
        -166.1134796142578
      ],
      "type": "VEC3"
    },
    {
      "bufferView": 2,
      "byteOffset": 5091132,
      "componentType": 5126,
      "count": 40519,
      "max": [
        1.0,
        1.0,
        1.0
      ],
      "min": [
        -1.0,
        -1.0,
        -1.0
      ],
      "type": "VEC3"
    },
    {
      "bufferView": 3,
      "byteOffset": 2472000,
      "componentType": 5126,
      "count": 40519,
      "max": [
        1.0,
        1.0,
        1.0,
        1.0
      ],
      "min": [
        -1.0,
        -1.0,
        -1.0,
        -1.0
      ],
      "type": "VEC4"
    },
    {
      "bufferView": 1,
      "byteOffset": 4604904,
      "componentType": 5126,
      "count": 40519,
      "max": [
        0.9931640625,
        0.9717864990234375
      ],
      "min": [
        0.00940704345703125,
        0.0126953125
      ],
      "type": "VEC2"
    },
    {
      "bufferView": 1,
      "byteOffset": 4929056,
      "componentType": 5126,
      "count": 40519,
      "max": [
        0.9931640625,
        0.9717864990234375
      ],
      "min": [
        0.00940704345703125,
        0.0126953125
      ],
      "type": "VEC2"
    },
    {
      "bufferView": 1,
      "byteOffset": 5253208,
      "componentType": 5126,
      "count": 40519,
      "max": [
        0.9931640625,
        0.9717864990234375
      ],
      "min": [
        0.00940704345703125,
        0.0126953125
      ],
      "type": "VEC2"
    },
    {
      "bufferView": 0,
      "byteOffset": 1760844,
      "componentType": 5125,
      "count": 94434,
      "type": "SCALAR"
    },
    {
      "bufferView": 2,
      "byteOffset": 5577360,
      "componentType": 5126,
      "count": 385,
      "max": [
        107.6171875,
        -7.348586082458496,
        259.765625
      ],
      "min": [
        -1251.5625,
        -1165.625,
        -285.5469055175781
      ],
      "type": "VEC3"
    },
    {
      "bufferView": 2,
      "byteOffset": 5581980,
      "componentType": 5126,
      "count": 385,
      "max": [
        0.9350810050964355,
        0.42560791969299316,
        1.0
      ],
      "min": [
        -0.9290732741355896,
        -1.0,
        -1.0
      ],
      "type": "VEC3"
    },
    {
      "bufferView": 1,
      "byteOffset": 5577360,
      "componentType": 5126,
      "count": 385,
      "max": [
        0.9609375,
        0.8746337890625
      ],
      "min": [
        0.034576416015625,
        0.1455078125
      ],
      "type": "VEC2"
    },
    {
      "bufferView": 0,
      "byteOffset": 2138580,
      "componentType": 5125,
      "count": 984,
      "type": "SCALAR"
    },
    {
      "bufferView": 2,
      "byteOffset": 5586600,
      "componentType": 5126,
      "count": 65532,
      "max": [
        1244.53125,
        1331.25,
        354.8826904296875
      ],
      "min": [
        -1259.375,
        -2043.75,
        -333.7890625
      ],
      "type": "VEC3"
    },
    {
      "bufferView": 2,
      "byteOffset": 6372984,
      "componentType": 5126,
      "count": 65532,
      "max": [
        1.0,
        1.0,
        1.0
      ],
      "min": [
        -1.0,
        -1.0,
        -1.0
      ],
      "type": "VEC3"
    },
    {
      "bufferView": 1,
      "byteOffset": 5580440,
      "componentType": 5126,
      "count": 65532,
      "max": [
        0.9990234375,
        0.998896598815918
      ],
      "min": [
        0.0012454986572265625,
        0.00244140625
      ],
      "type": "VEC2"
    },
    {
      "bufferView": 0,
      "byteOffset": 2142516,
      "componentType": 5125,
      "count": 138567,
      "type": "SCALAR"
    },
    {
      "bufferView": 2,
      "byteOffset": 7159368,
      "componentType": 5126,
      "count": 23446,
      "max": [
        1194.53125,
        1217.96875,
        417.5780029296875
      ],
      "min": [
        -1257.03125,
        -2050.0,
        -354.4921875
      ],
      "type": "VEC3"
    },
    {
      "bufferView": 2,
      "byteOffset": 7440720,
      "componentType": 5126,
      "count": 23446,
      "max": [
        1.0,
        1.0,
        1.0
      ],
      "min": [
        -1.0,
        -1.0,
        -1.0
      ],
      "type": "VEC3"
    },
    {
      "bufferView": 1,
      "byteOffset": 6104696,
      "componentType": 5126,
      "count": 23446,
      "max": [
        0.99951171875,
        0.998866081237793
      ],
      "min": [
        0.001186370849609375,
        0.0009765625
      ],
      "type": "VEC2"
    },
    {
      "bufferView": 0,
      "byteOffset": 2696784,
      "componentType": 5125,
      "count": 51024,
      "type": "SCALAR"
    }
  ],
  "asset": {
    "extras": {
      "author": "Stym (https://sketchfab.com/Stym)",
      "license": "CC-BY-SA-4.0 (http://creativecommons.org/licenses/by-sa/4.0/)",
      "source": "https://sketchfab.com/3d-models/millennium-falcon-6a27ba566af142708743ccb8b4668d4b",
      "title": "Millennium Falcon"
    },
    "generator": "Sketchfab-12.68.0",
    "version": "2.0"
  },
  "bufferViews": [
    {
      "buffer": 0,
      "byteLength": 2900880,
      "name": "floatBufferViews",
      "target": 34963
    },
    {
      "buffer": 0,
      "byteLength": 6292264,
      "byteOffset": 2900880,
      "byteStride": 8,
      "name": "floatBufferViews",
      "target": 34962
    },
    {
      "buffer": 0,
      "byteLength": 7722072,
      "byteOffset": 9193144,
      "byteStride": 12,
      "name": "floatBufferViews",
      "target": 34962
    },
    {
      "buffer": 0,
      "byteLength": 3120304,
      "byteOffset": 16915216,
      "byteStride": 16,
      "name": "floatBufferViews",
      "target": 34962
    }
  ],
  "buffers": [
    {
      "byteLength": 20035520,
      "uri": "scene.bin"
    }
  ],
  "images": [
    {
      "uri": "textures/Tex_0095_1.dds_baseColor.png"
    },
    {
      "uri": "textures/Tex_0095_1.dds_metallicRoughness.png"
    },
    {
      "uri": "textures/Tex_0095_1.dds_normal.png"
    },
    {
      "uri": "textures/Tex_0095_3.dds_baseColor.png"
    },
    {
      "uri": "textures/Tex_0095_3.dds_metallicRoughness.png"
    },
    {
      "uri": "textures/Tex_0095_2.dds_baseColor.png"
    },
    {
      "uri": "textures/Tex_0095_2.dds_metallicRoughness.png"
    },
    {
      "uri": "textures/Tex_0095_2.dds_emissive.png"
    },
    {
      "uri": "textures/Tex_0095_2.dds_normal.png"
    },
    {
      "uri": "textures/Tex_0095_2.dds_0_baseColor.png"
    }
  ],
  "materials": [
    {
      "doubleSided": true,
      "name": "Tex_0095_1.dds",
      "normalTexture": {
        "index": 2,
        "texCoord": 1
      },
      "pbrMetallicRoughness": {
        "baseColorTexture": {
          "index": 0
        },
        "metallicRoughnessTexture": {
          "index": 1
        }
      }
    },
    {
      "doubleSided": true,
      "name": "Tex_0095_3.dds",
      "pbrMetallicRoughness": {
        "baseColorTexture": {
          "index": 3
        },
        "metallicRoughnessTexture": {
          "index": 4
        }
      }
    },
    {
      "doubleSided": true,
      "emissiveFactor": [
        1.0,
        1.0,
        1.0
      ],
      "emissiveTexture": {
        "index": 7
      },
      "name": "Tex_0095_2.dds",
      "normalTexture": {
        "index": 8
      },
      "pbrMetallicRoughness": {
        "baseColorTexture": {
          "index": 5
        },
        "metallicRoughnessTexture": {
          "index": 6
        }
      }
    },
    {
      "alphaMode": "BLEND",
      "doubleSided": true,
      "name": "Tex_5040_1.dds",
      "pbrMetallicRoughness": {
        "baseColorFactor": [
          0.0,
          0.0,
          0.0,
          0.65
        ],
        "metallicFactor": 0.0,
        "roughnessFactor": 0.0
      }
    },
    {
      "alphaMode": "BLEND",
      "doubleSided": true,
      "name": "Tex_0095_2.dds_0",
      "pbrMetallicRoughness": {
        "baseColorTexture": {
          "index": 9
        },
        "metallicRoughnessTexture": {
          "index": 6
        }
      }
    }
  ],
  "meshes": [
    {
      "name": "Mesh_0067_Tex_0095_1.dds_0",
      "primitives": [
        {
          "attributes": {
            "NORMAL": 1,
            "POSITION": 0,
            "TANGENT": 2,
            "TEXCOORD_0": 3,
            "TEXCOORD_1": 4,
            "TEXCOORD_2": 5
          },
          "indices": 6,
          "material": 0,
          "mode": 4
        }
      ]
    },
    {
      "name": "Mesh_0067_Tex_0095_1.dds_0",
      "primitives": [
        {
          "attributes": {
            "NORMAL": 8,
            "POSITION": 7,
            "TANGENT": 9,
            "TEXCOORD_0": 10,
            "TEXCOORD_1": 11,
            "TEXCOORD_2": 12
          },
          "indices": 13,
          "material": 0,
          "mode": 4
        }
      ]
    },
    {
      "name": "Mesh_0069_Tex_0095_3.dds_0",
      "primitives": [
        {
          "attributes": {
            "NORMAL": 15,
            "POSITION": 14,
            "TEXCOORD_0": 16,
            "TEXCOORD_1": 17,
            "TEXCOORD_2": 18
          },
          "indices": 19,
          "material": 1,
          "mode": 4
        }
      ]
    },
    {
      "name": "Mesh_0068_Tex_0095_2.dds_0",
      "primitives": [
        {
          "attributes": {
            "NORMAL": 21,
            "POSITION": 20,
            "TANGENT": 22,
            "TEXCOORD_0": 23,
            "TEXCOORD_1": 24,
            "TEXCOORD_2": 25
          },
          "indices": 26,
          "material": 2,
          "mode": 4
        }
      ]
    },
    {
      "name": "Mesh_0068_Tex_0095_2.dds_0",
      "primitives": [
        {
          "attributes": {
            "NORMAL": 28,
            "POSITION": 27,
            "TANGENT": 29,
            "TEXCOORD_0": 30,
            "TEXCOORD_1": 31,
            "TEXCOORD_2": 32
          },
          "indices": 33,
          "material": 2,
          "mode": 4
        }
      ]
    },
    {
      "name": "Mesh_0546_Tex_5040_1.dds_0",
      "primitives": [
        {
          "attributes": {
            "NORMAL": 35,
            "POSITION": 34,
            "TEXCOORD_0": 36
          },
          "indices": 37,
          "material": 3,
          "mode": 4
        }
      ]
    },
    {
      "name": "Mesh_0067_Tex_0095_2.dds_0",
      "primitives": [
        {
          "attributes": {
            "NORMAL": 39,
            "POSITION": 38,
            "TEXCOORD_0": 40
          },
          "indices": 41,
          "material": 4,
          "mode": 4
        }
      ]
    },
    {
      "name": "Mesh_0067_Tex_0095_2.dds_0",
      "primitives": [
        {
          "attributes": {
            "NORMAL": 43,
            "POSITION": 42,
            "TEXCOORD_0": 44
          },
          "indices": 45,
          "material": 4,
          "mode": 4
        }
      ]
    }
  ],
  "nodes": [
    {
      "children": [
        1
      ],
      "matrix": [
        0.0023444932885468006,
        0.0,
        0.0,
        0.0,
        0.0,
        5.205820860047618e-19,
        -0.0023444932885468006,
        0.0,
        0.0,
        0.0023444932885468006,
        5.205820860047618e-19,
        0.0,
        0.0,
        0.0,
        0.0,
        1.0
      ],
      "name": "Sketchfab_model"
    },
    {
      "children": [
        2
      ],
      "matrix": [
        1.0,
        0.0,
        0.0,
        0.0,
        0.0,
        0.0,
        1.0,
        0.0,
        0.0,
        -1.0,
        0.0,
        0.0,
        0.0,
        0.0,
        0.0,
        1.0
      ],
      "name": "c2e383d4b8b94de7a9b69c5ffca3aec9.fbx"
    },
    {
      "children": [
        3,
        6,
        8,
        11,
        13
      ],
      "name": "RootNode"
    },
    {
      "children": [
        4,
        5
      ],
      "matrix": [
        1.0,
        0.0,
        0.0,
        0.0,
        0.0,
        2.220446049250313e-16,
        -1.0,
        0.0,
        0.0,
        1.0,
        2.220446049250313e-16,
        0.0,
        0.0,
        0.0,
        0.0,
        1.0
      ],
      "name": "Mesh_0067"
    },
    {
      "mesh": 0,
      "name": "Mesh_0067_Tex_0095_1.dds_0"
    },
    {
      "mesh": 1,
      "name": "Mesh_0067_Tex_0095_1.dds_0"
    },
    {
      "children": [
        7
      ],
      "matrix": [
        1.0,
        0.0,
        0.0,
        0.0,
        0.0,
        2.220446049250313e-16,
        -1.0,
        0.0,
        0.0,
        1.0,
        2.220446049250313e-16,
        0.0,
        0.0,
        0.0,
        0.0,
        1.0
      ],
      "name": "Mesh_0069"
    },
    {
      "mesh": 2,
      "name": "Mesh_0069_Tex_0095_3.dds_0"
    },
    {
      "children": [
        9,
        10
      ],
      "matrix": [
        1.0,
        0.0,
        0.0,
        0.0,
        0.0,
        2.220446049250313e-16,
        -1.0,
        0.0,
        0.0,
        1.0,
        2.220446049250313e-16,
        0.0,
        0.0,
        0.0,
        0.0,
        1.0
      ],
      "name": "Mesh_0068"
    },
    {
      "mesh": 3,
      "name": "Mesh_0068_Tex_0095_2.dds_0"
    },
    {
      "mesh": 4,
      "name": "Mesh_0068_Tex_0095_2.dds_0"
    },
    {
      "children": [
        12
      ],
      "matrix": [
        1.0,
        0.0,
        0.0,
        0.0,
        0.0,
        2.220446049250313e-16,
        -1.0,
        0.0,
        0.0,
        1.0,
        2.220446049250313e-16,
        0.0,
        0.0,
        0.0,
        0.0,
        1.0
      ],
      "name": "Mesh_0546"
    },
    {
      "mesh": 5,
      "name": "Mesh_0546_Tex_5040_1.dds_0"
    },
    {
      "children": [
        14,
        15
      ],
      "matrix": [
        1.0,
        0.0,
        0.0,
        0.0,
        0.0,
        2.220446049250313e-16,
        -1.0,
        0.0,
        0.0,
        1.0,
        2.220446049250313e-16,
        0.0,
        0.0,
        0.0,
        0.0,
        1.0
      ],
      "name": "Mesh_0067"
    },
    {
      "mesh": 6,
      "name": "Mesh_0067_Tex_0095_2.dds_0"
    },
    {
      "mesh": 7,
      "name": "Mesh_0067_Tex_0095_2.dds_0"
    }
  ],
  "samplers": [
    {
      "magFilter": 9729,
      "minFilter": 9987,
      "wrapS": 10497,
      "wrapT": 10497
    }
  ],
  "scene": 0,
  "scenes": [
    {
      "name": "Sketchfab_Scene",
      "nodes": [
        0
      ]
    }
  ],
  "textures": [
    {
      "sampler": 0,
      "source": 0
    },
    {
      "sampler": 0,
      "source": 1
    },
    {
      "sampler": 0,
      "source": 2
    },
    {
      "sampler": 0,
      "source": 3
    },
    {
      "sampler": 0,
      "source": 4
    },
    {
      "sampler": 0,
      "source": 5
    },
    {
      "sampler": 0,
      "source": 6
    },
    {
      "sampler": 0,
      "source": 7
    },
    {
      "sampler": 0,
      "source": 8
    },
    {
      "sampler": 0,
      "source": 9
    }
  ]
}
